<svg xmlns="http://www.w3.org/2000/svg" viewBox="0 0 64 64">
  <defs>
    <linearGradient id="g" x1="0" y1="0" x2="1" y2="1">
      <stop offset="0%" stop-color="#F0D78C"/>
      <stop offset="55%" stop-color="#D4A23B"/>
      <stop offset="100%" stop-color="#9C7423"/>
    </linearGradient>
  </defs>
  <rect width="64" height="64" rx="16" fill="#2B1810"/>
  <path d="M32 14c-6 0-9 5-9 10 0 6 4 8 4 13 0 4-2 6-2 6h6s2-3 2-7c0-5-4-7-4-12 0-3 1-6 3-6s3 3 3 6c0 5-4 7-4 12 0 4 2 7 2 7h6s-2-2-2-6c0-5 4-7 4-13 0-5-3-10-9-10z" fill="url(#g)"/>
</svg>
